<svg width="24" height="24" viewBox="0 0 24 18" fill="none" xmlns="http://www.w3.org/2000/svg"><path d="M21 0H3C1.34315 0 0 1.34315 0 3V15C0 16.6569 1.34315 18 3 18H21C22.6569 18 24 16.6569 24 15V3C24 1.34315 22.6569 0 21 0Z" fill="#007455"/><path d="M12.756 10.0262C12.522 10.2505 12.2066 10.3932 11.8505 10.383C11.6064 10.383 11.3825 10.3117 11.1994 10.1893L10.7314 10.9334C11.057 11.1373 11.4334 11.2596 11.8404 11.2596C12.4304 11.2698 12.9798 11.0354 13.3766 10.648L12.756 10.0262Z" fill="white"/><path d="M11.9023 6.96834C10.7222 6.94795 9.7455 7.89591 9.72516 9.0885C9.71498 9.537 9.84724 9.94472 10.0711 10.2913L13.9573 8.62981C13.7437 7.69205 12.9095 6.98873 11.9023 6.96834ZM10.6204 9.25159C10.6103 9.20062 10.6103 9.14966 10.6103 9.09869C10.6204 8.39537 11.1901 7.84495 11.8921 7.85514C12.2685 7.86533 12.6043 8.03861 12.8383 8.30363L10.6204 9.25159Z" fill="white"/><path d="M15.1772 6V10.1486L15.8995 10.4442L15.5638 11.2596L14.8516 10.964C14.6888 10.8927 14.5871 10.7907 14.5057 10.6684C14.4243 10.5461 14.3633 10.383 14.3633 10.1588V6H15.1772Z" fill="white"/><path d="M8.9213 6V10.1486L9.64362 10.4442L9.3079 11.2596L8.59575 10.964C8.43298 10.8927 8.33124 10.7907 8.24985 10.6684C8.16846 10.5461 8.10742 10.383 8.10742 10.1588V6H8.9213Z" fill="white"/><path d="M18.7079 7.97743C19.3386 8.28322 19.6031 9.03751 19.2979 9.66948L20.0915 10.0568C20.6001 8.98654 20.1525 7.70221 19.0843 7.19256C18.2704 6.80522 17.3345 6.96831 16.7139 7.53912L17.3039 8.19148C17.6803 7.84491 18.2297 7.74298 18.7079 7.97743Z" fill="#C7D540"/><path d="M17.6207 10.2607C16.9899 9.95487 16.7254 9.20058 17.0306 8.56861L16.2371 8.18127C15.7284 9.25155 16.176 10.5359 17.2443 11.0455C18.0581 11.4329 18.9941 11.2698 19.6147 10.699L19.0246 10.0466C18.6482 10.3932 18.0988 10.4849 17.6207 10.2607Z" fill="white"/><path d="M7.29322 10.3219V9.11912C7.29322 9.11912 7.29322 9.11912 7.29322 9.10893C7.29322 8.15078 6.66247 7.34553 5.79772 7.07031C5.59425 7.00916 5.3806 6.96838 5.14661 6.96838C4.9228 6.96838 4.70915 6.99896 4.50568 7.06012C4.16995 7.16205 3.87492 7.34553 3.63076 7.59016C3.24416 7.9775 3 8.51773 3 9.10893C3 10.2913 3.95631 11.2495 5.13644 11.2495C5.48234 11.2495 5.80789 11.1679 6.09275 11.0252L5.7672 10.2302C5.58407 10.3321 5.3806 10.3831 5.15679 10.3831C4.45481 10.3831 3.89527 9.81225 3.89527 9.11912C3.89527 8.90507 3.94614 8.70121 4.04787 8.52793C4.22082 8.21194 4.51585 7.9775 4.8821 7.88576C4.97366 7.86537 5.06522 7.85518 5.16696 7.85518C5.35008 7.85518 5.53321 7.89595 5.68581 7.96731C6.12327 8.17117 6.42848 8.60947 6.42848 9.11912C6.42848 9.1599 6.42848 10.3117 6.42848 10.3117C6.42848 10.536 6.48952 10.7092 6.5709 10.8214C6.65229 10.9437 6.7642 11.0456 6.9168 11.117L7.31357 11.2801L7.6493 10.4646L7.29322 10.3219Z" fill="white"/></svg>