<svg width="24" height="24" viewBox="0 0 24 24" fill="none" xmlns="http://www.w3.org/2000/svg"><path d="M18.75 5H5.25C4.00736 5 3 6.04467 3 7.33333V16.6667C3 17.9553 4.00736 19 5.25 19H18.75C19.9926 19 21 17.9553 21 16.6667V7.33333C21 6.04467 19.9926 5 18.75 5Z" fill="#EA1D2C"/><path fill-rule="evenodd" clip-rule="evenodd" d="M11.7961 11.6267C13.2098 11.6267 14.1904 10.269 14.1904 9.15998C14.1904 8.35313 13.4656 8 12.7765 8C11.225 8 10.3809 9.46158 10.3809 10.4669C10.3809 11.274 11.1132 11.6267 11.7961 11.6267Z" fill="white"/><path fill-rule="evenodd" clip-rule="evenodd" d="M15.6064 11.6267C17.0194 11.6267 17.9999 10.269 17.9999 9.15998C17.9999 8.35313 17.2738 8 16.5849 8C15.0356 8 14.1904 9.46158 14.1904 10.4669C14.1904 11.274 14.9239 11.6267 15.6064 11.6267Z" fill="white"/><path fill-rule="evenodd" clip-rule="evenodd" d="M16.348 13.9811C15.4598 14.7413 14.2722 15.1336 12.9819 15.0519C11.3547 14.9515 10.2263 13.6833 10 12.3967H10.0768C10.4427 13.2183 11.3339 13.9763 12.4518 14.1009C13.5436 14.2223 14.8815 13.7257 15.6156 13.0171L14.7929 12.3903L17.2381 12.3969L16.7116 15.0028L16.3478 13.9811H16.348Z" fill="white"/></svg>