<svg width="24" height="24" viewBox="-2 -2 24 24" fill="none" xmlns="http://www.w3.org/2000/svg"><path d="M4.26644 19C2.34725 19 0.763916 17.4167 0.763916 15.4975V9.21212V3.50253C0.763916 2.59091 1.14775 1.67929 1.77149 1.00758C2.44321 0.383838 3.35483 0 4.26644 0H16.2614C18.1806 0 19.7639 1.58333 19.7639 3.50253V9.5V15.4975C19.7639 16.4091 19.3801 17.3207 18.7563 17.9924C18.0846 18.6641 17.221 19 16.2614 19H4.26644Z" fill="white"/><path d="M4.26669 0.479736C2.63537 0.479736 1.24396 1.87115 1.24396 3.50246V9.21206V15.4974C1.24396 17.1287 2.58739 18.5201 4.26669 18.5201H16.2616C17.8929 18.5201 19.2844 17.1767 19.2844 15.4974V9.49994V3.50246C19.2844 1.87115 17.9409 0.479736 16.2616 0.479736H4.26669Z" fill="#00A513"/><path d="M19.2893 14.25H1.23932V15.525C1.23932 17.1819 2.58247 18.525 4.23932 18.525H16.2893C17.9462 18.525 19.2893 17.1819 19.2893 15.525V14.25Z" fill="#9F8D5F"/><path d="M5.12999 16.1692C5.32191 16.0732 5.41787 15.9293 5.41787 15.7374C5.41787 15.4975 5.22595 15.2096 4.74615 15.2096H3.83453V17.2727H4.84211C5.46585 17.2727 5.56181 16.8889 5.56181 16.649C5.56181 16.4571 5.41787 16.2651 5.12999 16.1692ZM4.31433 15.6414H4.60221C4.79413 15.6414 4.84211 15.7374 4.84211 15.8813C4.84211 15.9773 4.74615 16.1212 4.60221 16.1212H4.31433V15.6414ZM4.60221 16.9369H4.31433V16.4571H4.65019C4.84211 16.4571 4.98605 16.553 4.98605 16.697C4.98605 16.8889 4.89009 16.9369 4.60221 16.9369ZM6.5214 15.8813C6.08958 15.8813 5.80171 16.1692 5.80171 16.601C5.80171 17.0328 6.13756 17.3207 6.61736 17.3207C6.71332 17.3207 7.0012 17.3207 7.2411 17.1288V16.8409C7.04918 16.9848 6.90524 17.0328 6.71332 17.0328C6.42544 17.0328 6.2815 16.8889 6.23352 16.649H7.2411C7.28908 16.1692 6.95322 15.8813 6.5214 15.8813ZM6.2815 16.4571C6.2815 16.2651 6.42544 16.1692 6.56938 16.1692C6.7613 16.1692 6.85726 16.2651 6.85726 16.4571H6.2815ZM8.44059 15.8813C8.24867 15.8813 8.10474 15.9293 8.00878 16.1212V15.9293H7.57696V17.3207H7.9608V16.4091C8.05676 16.2172 8.15272 16.1692 8.24867 16.1692C8.39261 16.1692 8.48857 16.2651 8.48857 16.4571V17.3207H8.92039V16.4571C8.92039 16.0253 8.63251 15.8813 8.44059 15.8813ZM9.87999 15.9293C9.49615 15.9293 9.25625 16.2172 9.25625 16.601C9.25625 16.9848 9.49615 17.3207 9.92797 17.3207C10.1679 17.3207 10.3118 17.2727 10.4557 17.1768V16.9369C10.3118 17.0328 10.1679 17.0808 9.97595 17.0808C9.73605 17.0808 9.54413 16.9369 9.49615 16.649H10.4557C10.4557 16.1692 10.2638 15.9293 9.87999 15.9293ZM9.54413 16.505C9.59211 16.3131 9.68807 16.1692 9.92797 16.1692C10.1199 16.1692 10.2158 16.3131 10.2638 16.505H9.54413ZM10.9835 15.3535C10.8876 15.4495 10.7916 15.5934 10.7916 15.8333V15.9293H10.5997V16.1692H10.7916V17.2727H11.0795V16.1692H11.3194V15.9293H11.0795V15.8333C11.0795 15.6414 11.1275 15.4975 11.3674 15.4975C11.4153 15.4975 11.4633 15.4975 11.5113 15.5455V15.2576C11.2234 15.2096 11.0795 15.2576 10.9835 15.3535ZM11.5113 15.7854H11.6552L11.9911 15.3535H11.7032L11.5113 15.7854ZM11.5113 17.3207H11.7992V15.9773H11.5113V17.3207ZM12.3749 16.649C12.3749 16.3611 12.5669 16.1692 12.8068 16.1692C12.9027 16.1692 13.0467 16.2172 13.1906 16.3131V16.0253C13.0467 15.9773 12.9507 15.9293 12.8068 15.9293C12.3749 15.9293 12.135 16.2172 12.135 16.649C12.135 17.0328 12.4229 17.3207 12.8068 17.3207C12.9507 17.3207 13.1426 17.2727 13.1906 17.2247V16.9369C13.0467 16.9848 12.9507 17.0328 12.8547 17.0328C12.5669 17.0808 12.3749 16.9369 12.3749 16.649ZM13.6224 15.4015C13.5265 15.4015 13.4785 15.4495 13.4785 15.5455C13.4785 15.6414 13.5744 15.6894 13.6224 15.6894C13.7184 15.6894 13.7664 15.5934 13.7664 15.5455C13.8143 15.4495 13.7184 15.4015 13.6224 15.4015ZM13.5265 17.3207H13.8143V15.9773H13.5265V17.3207ZM14.8219 15.9293C14.4381 15.9293 14.1022 16.2172 14.1022 16.601C14.1022 17.0328 14.3901 17.3207 14.8219 17.3207C15.2537 17.3207 15.5416 17.0328 15.5416 16.601C15.5416 16.2172 15.2057 15.9293 14.8219 15.9293ZM14.7739 17.1288C14.534 17.1288 14.3421 16.9369 14.3421 16.649C14.3421 16.4091 14.534 16.2172 14.7739 16.2172C15.0618 16.2172 15.2537 16.4091 15.2537 16.649C15.2537 16.9369 15.0618 17.1288 14.7739 17.1288ZM16.3573 16.553C16.1174 16.4091 16.0214 16.3611 16.0214 16.2652C16.0214 16.1692 16.0694 16.1212 16.2133 16.1212C16.3093 16.1212 16.4532 16.1692 16.5972 16.2652V15.9773C16.4532 15.8813 16.3093 15.8813 16.2133 15.8813C15.9254 15.8813 15.7815 16.0253 15.7815 16.2652C15.7815 16.649 16.4052 16.7449 16.4052 16.9369C16.4052 17.0328 16.3093 17.0808 16.2133 17.0808C16.1174 17.0808 15.9254 17.0328 15.7815 16.8889V17.1768C15.9734 17.2727 16.0694 17.3207 16.2613 17.3207C16.5012 17.3207 16.6931 17.1768 16.6931 16.9369C16.6931 16.7929 16.5972 16.697 16.3573 16.553Z" fill="white"/><path d="M9.73642 5.46973L7.86521 10.9874H7.81723L6.76167 7.53286H3.78693C4.93844 10.2197 5.17834 10.9394 6.13794 13.4824H9.49652C10.3122 11.5152 11.1758 9.50004 12.0395 7.53286H12.7112C13.3349 7.53286 13.7667 7.6768 13.7667 8.25256C13.7667 8.92428 12.999 8.97226 12.4233 8.97226C12.2314 8.97226 12.1834 8.92428 12.0395 8.92428L13.4309 13.4824H16.5975C16.0698 12.3308 15.6859 11.2273 15.2541 10.0758C16.2137 9.596 16.6455 8.82832 16.6455 7.96468C16.6455 6.42933 15.6379 5.42175 13.6708 5.42175H9.73642V5.46973Z" fill="white"/></svg>